<?xml version="1.0" encoding="UTF-8"?>
<svg width="1200" height="800" viewBox="0 0 1200 800" fill="none" xmlns="http://www.w3.org/2000/svg">
  <!-- Background -->
  <rect width="1200" height="800" fill="#F8FAFC"/>
  
  <!-- Header -->
  <rect y="0" width="1200" height="64" fill="#F1F5F9"/>
  <rect x="32" y="16" width="120" height="32" rx="6" fill="#E2E8F0"/>
  <rect x="1048" y="16" width="120" height="32" rx="6" fill="#E2E8F0"/>
  
  <!-- Sidebar -->
  <rect x="0" y="64" width="240" height="736" fill="#F1F5F9"/>
  <rect x="32" y="96" width="176" height="32" rx="6" fill="#E2E8F0"/>
  <rect x="32" y="144" width="176" height="32" rx="6" fill="#E2E8F0"/>
  <rect x="32" y="192" width="176" height="32" rx="6" fill="#E2E8F0"/>
  
  <!-- Main Content -->
  <rect x="272" y="96" width="896" height="160" rx="8" fill="#E2E8F0"/>
  
  <!-- Cards Grid -->
  <rect x="272" y="288" width="280" height="200" rx="8" fill="#E2E8F0"/>
  <rect x="580" y="288" width="280" height="200" rx="8" fill="#E2E8F0"/>
  <rect x="888" y="288" width="280" height="200" rx="8" fill="#E2E8F0"/>
  
  <!-- Table -->
  <rect x="272" y="520" width="896" height="248" rx="8" fill="#E2E8F0"/>
</svg> 